/* XPM */
static char * pdicon16_xpm[] = {
"16 16 13 1",
" 	c None",
".	c #000000",
"+	c #805725",
"@	c #402C12",
"#	c #FFAE4A",
"$	c #BF8238",
"%	c #7B2818",
"&	c #9C4A24",
"*	c #DE8C3E",
"=	c #BD6B31",
"-	c #9E612B",
";	c #5E3618",
">	c #7D401E",
"....++@..@+++++@",
"+###++$##$++###+",
"+##+########+##+",
"+#+##########+#+",
"++##########%%++",
"++###########%++",
"@$%%&%&*#=%%&%$@",
".#*%=#*&*%*#&%#.",
".##%###%==##*%#.",
"@$#%&=&=#%==%%-@",
"++#%*=*###==*=;+",
"++=%=#########++",
"+#>==########+#+",
"+##+########+##+",
"+###++$##$++###+",
"....++@..@+++++@"};
