/* XPM */
static char * pd_32_xpm[] = {
"32 32 4 1",
" 	c None",
".	c #000000",
"+	c #FFAE4A",
"@	c #7B2818",
"................................",
"........+++++......++++++++++++.",
".+++++++++...++++++...+++++++++.",
".+++++++..++++++++++++..+++++++.",
".++++++.++++++++++++++++.++++++.",
".+++++.++++++++++++++++++.+++++.",
".++++.++++++++++++++++++++.++++.",
".+++.++++++++++++++++++++++.+++.",
".++.++++++++++++++++++++@@@@.++.",
".++.++++++++++++++++++++@@@@.++.",
".+.+++++++++++++++++++++++@@+.+.",
".+.+++++++++++++++++++++++@@+.+.",
".+.+@@@@+@@@@+++++++@@@@@+@@+.+.",
"..++@@@@@@@@@@@+++@@@@@@@@@@++..",
"..+++@@@@@+++@@+++@@@+++@@@@++..",
"..++++@@++++++@@+@@@+++++@@@++..",
"..++++@@++++++@@+@@+++++++@@++..",
"..++++@@++++++@@+@@++++++@@@++..",
"..++++@@@++++@@+++@@++++@@@@++..",
".+.+++@@@@@@@@@+++@@@@@@@@@@@.+.",
".+.+++@@+@@@@+++++++@@@@@+@@@.+.",
".+.+++@@+++++++++++++++++++++.+.",
".++.++@@++++++++++++++++++++.++.",
".++.@@@@@@++++++++++++++++++.++.",
".+++@@@@@@+++++++++++++++++.+++.",
".++++.++++++++++++++++++++.++++.",
".+++++.++++++++++++++++++.+++++.",
".++++++.++++++++++++++++.++++++.",
".+++++++..++++++++++++..+++++++.",
".+++++++++...++++++...+++++++++.",
"........+++++......++++++++++++.",
"................................"};
